<mxfile host="65bd71144e">
    <diagram id="cexXcNLW11FJVUOb5X8r" name="Page-1">
        <mxGraphModel dx="4971" dy="3106" grid="1" gridSize="10" guides="1" tooltips="1" connect="1" arrows="1" fold="1" page="1" pageScale="1" pageWidth="827" pageHeight="1169" math="0" shadow="0">
            <root>
                <mxCell id="0"/>
                <mxCell id="1" parent="0"/>
                <mxCell id="41" value="" style="ellipse;whiteSpace=wrap;html=1;aspect=fixed;fontFamily=Times New Roman;fontSize=50;strokeWidth=3;fillColor=none;" vertex="1" parent="1">
                    <mxGeometry x="-1000" y="-1000" width="2000" height="2000" as="geometry"/>
                </mxCell>
                <mxCell id="42" value="&lt;font face=&quot;Times New Roman&quot; style=&quot;font-size: 50px&quot;&gt;1&lt;/font&gt;" style="ellipse;whiteSpace=wrap;html=1;aspect=fixed;flipV=0;direction=north;rotation=0;strokeWidth=3;fillColor=none;" vertex="1" parent="1">
                    <mxGeometry x="290" y="-790" width="80" height="80" as="geometry"/>
                </mxCell>
                <mxCell id="43" value="&lt;font face=&quot;Times New Roman&quot; style=&quot;font-size: 50px&quot;&gt;2&lt;/font&gt;" style="ellipse;whiteSpace=wrap;html=1;aspect=fixed;flipV=0;direction=north;rotation=0;strokeWidth=3;fillColor=none;" vertex="1" parent="1">
                    <mxGeometry x="500" y="200" width="80" height="80" as="geometry"/>
                </mxCell>
                <mxCell id="44" value="&lt;font face=&quot;Times New Roman&quot; style=&quot;font-size: 50px&quot;&gt;3&lt;/font&gt;" style="ellipse;whiteSpace=wrap;html=1;aspect=fixed;flipV=0;direction=north;rotation=0;strokeWidth=3;fillColor=none;" vertex="1" parent="1">
                    <mxGeometry x="-390" y="590" width="80" height="80" as="geometry"/>
                </mxCell>
                <mxCell id="45" value="4" style="ellipse;whiteSpace=wrap;html=1;aspect=fixed;flipV=0;direction=north;rotation=0;fontFamily=Times New Roman;fontSize=50;strokeWidth=3;fillColor=none;" vertex="1" parent="1">
                    <mxGeometry x="900" y="-250" width="80" height="80" as="geometry"/>
                </mxCell>
                <mxCell id="46" value="&lt;font face=&quot;Times New Roman&quot; style=&quot;font-size: 50px&quot;&gt;5&lt;/font&gt;" style="ellipse;whiteSpace=wrap;html=1;aspect=fixed;flipV=0;direction=north;rotation=0;strokeWidth=3;fillColor=none;" vertex="1" parent="1">
                    <mxGeometry x="-160" y="-920" width="80" height="80" as="geometry"/>
                </mxCell>
                <mxCell id="47" value="&lt;font face=&quot;Times New Roman&quot; style=&quot;font-size: 50px&quot;&gt;6&lt;/font&gt;" style="ellipse;whiteSpace=wrap;html=1;aspect=fixed;flipV=0;direction=north;rotation=0;strokeWidth=3;fillColor=none;" vertex="1" parent="1">
                    <mxGeometry x="120" y="340" width="80" height="80" as="geometry"/>
                </mxCell>
                <mxCell id="48" value="&lt;font face=&quot;Times New Roman&quot; style=&quot;font-size: 50px&quot;&gt;7&lt;/font&gt;" style="ellipse;whiteSpace=wrap;html=1;aspect=fixed;flipV=0;direction=north;rotation=0;strokeWidth=3;fillColor=none;" vertex="1" parent="1">
                    <mxGeometry x="-60" y="450" width="80" height="80" as="geometry"/>
                </mxCell>
                <mxCell id="49" value="&lt;font face=&quot;Times New Roman&quot; style=&quot;font-size: 50px&quot;&gt;8&lt;/font&gt;" style="ellipse;whiteSpace=wrap;html=1;aspect=fixed;flipV=0;direction=north;rotation=0;strokeWidth=3;fillColor=none;" vertex="1" parent="1">
                    <mxGeometry x="160" y="140" width="80" height="80" as="geometry"/>
                </mxCell>
                <mxCell id="50" value="&lt;font face=&quot;Times New Roman&quot; style=&quot;font-size: 50px&quot;&gt;9&lt;/font&gt;" style="ellipse;whiteSpace=wrap;html=1;aspect=fixed;flipV=0;direction=north;rotation=0;strokeWidth=3;fillColor=none;" vertex="1" parent="1">
                    <mxGeometry x="-600" y="-250" width="80" height="80" as="geometry"/>
                </mxCell>
                <mxCell id="51" value="&lt;font face=&quot;Times New Roman&quot; style=&quot;font-size: 50px&quot;&gt;10&lt;/font&gt;" style="ellipse;whiteSpace=wrap;html=1;aspect=fixed;flipV=0;direction=north;rotation=0;strokeWidth=3;fillColor=none;" vertex="1" parent="1">
                    <mxGeometry x="-160" y="-20" width="80" height="80" as="geometry"/>
                </mxCell>
                <mxCell id="52" value="&lt;font style=&quot;font-size: 50px&quot; face=&quot;Times New Roman&quot;&gt;11&lt;/font&gt;" style="ellipse;whiteSpace=wrap;html=1;aspect=fixed;flipV=0;direction=north;rotation=0;strokeWidth=3;fillColor=none;" vertex="1" parent="1">
                    <mxGeometry x="320" y="-600" width="80" height="80" as="geometry"/>
                </mxCell>
                <mxCell id="53" value="&lt;font face=&quot;Times New Roman&quot; style=&quot;font-size: 50px&quot;&gt;12&lt;/font&gt;" style="ellipse;whiteSpace=wrap;html=1;aspect=fixed;flipV=0;direction=north;rotation=0;strokeWidth=3;fillColor=none;" vertex="1" parent="1">
                    <mxGeometry x="-650" y="-450" width="80" height="80" as="geometry"/>
                </mxCell>
                <mxCell id="54" value="&lt;font face=&quot;Times New Roman&quot; style=&quot;font-size: 50px&quot;&gt;13&lt;/font&gt;" style="ellipse;whiteSpace=wrap;html=1;aspect=fixed;flipV=0;direction=north;rotation=0;strokeWidth=3;fillColor=none;" vertex="1" parent="1">
                    <mxGeometry x="-290" y="-440" width="80" height="80" as="geometry"/>
                </mxCell>
                <mxCell id="55" value="&lt;font face=&quot;Times New Roman&quot; style=&quot;font-size: 50px&quot;&gt;14&lt;/font&gt;" style="ellipse;whiteSpace=wrap;html=1;aspect=fixed;flipV=0;direction=north;rotation=0;strokeWidth=3;fillColor=none;" vertex="1" parent="1">
                    <mxGeometry x="590" y="560" width="80" height="80" as="geometry"/>
                </mxCell>
                <mxCell id="56" value="&lt;font face=&quot;Times New Roman&quot; style=&quot;font-size: 50px&quot;&gt;15&lt;/font&gt;" style="ellipse;whiteSpace=wrap;html=1;aspect=fixed;flipV=0;direction=north;rotation=0;strokeWidth=3;fillColor=none;" vertex="1" parent="1">
                    <mxGeometry x="-640" y="420" width="80" height="80" as="geometry"/>
                </mxCell>
                <mxCell id="57" value="&lt;font face=&quot;Times New Roman&quot; style=&quot;font-size: 50px&quot;&gt;16&lt;/font&gt;" style="ellipse;whiteSpace=wrap;html=1;aspect=fixed;flipV=0;direction=north;rotation=0;strokeWidth=3;fillColor=none;" vertex="1" parent="1">
                    <mxGeometry x="90" y="-130" width="80" height="80" as="geometry"/>
                </mxCell>
                <mxCell id="58" value="&lt;font face=&quot;Times New Roman&quot; style=&quot;font-size: 50px&quot;&gt;17&lt;/font&gt;" style="ellipse;whiteSpace=wrap;html=1;aspect=fixed;flipV=0;direction=north;rotation=0;strokeWidth=3;fillColor=none;" vertex="1" parent="1">
                    <mxGeometry x="690" y="-250" width="80" height="80" as="geometry"/>
                </mxCell>
                <mxCell id="59" value="&lt;font face=&quot;Times New Roman&quot; style=&quot;font-size: 50px&quot;&gt;18&lt;/font&gt;" style="ellipse;whiteSpace=wrap;html=1;aspect=fixed;flipV=0;direction=north;rotation=0;strokeWidth=3;fillColor=none;" vertex="1" parent="1">
                    <mxGeometry x="330" y="390" width="80" height="80" as="geometry"/>
                </mxCell>
                <mxCell id="60" value="&lt;font face=&quot;Times New Roman&quot;&gt;&lt;span style=&quot;font-size: 50px&quot;&gt;19&lt;br&gt;&lt;/span&gt;&lt;/font&gt;" style="ellipse;whiteSpace=wrap;html=1;aspect=fixed;flipV=0;direction=north;rotation=0;strokeWidth=3;fillColor=none;" vertex="1" parent="1">
                    <mxGeometry x="-100" y="640" width="80" height="80" as="geometry"/>
                </mxCell>
                <mxCell id="61" value="&lt;font face=&quot;Times New Roman&quot; style=&quot;font-size: 50px&quot;&gt;20&lt;/font&gt;" style="ellipse;whiteSpace=wrap;html=1;aspect=fixed;flipV=0;direction=north;rotation=0;strokeWidth=3;fillColor=none;" vertex="1" parent="1">
                    <mxGeometry x="150" y="710" width="80" height="80" as="geometry"/>
                </mxCell>
                <mxCell id="62" value="" style="rounded=0;whiteSpace=wrap;html=1;fontFamily=Times New Roman;fontSize=50;fillColor=none;" vertex="1" parent="1">
                    <mxGeometry x="620" y="-1040" width="410" height="130" as="geometry"/>
                </mxCell>
                <mxCell id="63" value="" style="ellipse;whiteSpace=wrap;html=1;aspect=fixed;flipV=0;direction=north;rotation=0;strokeWidth=3;fillColor=none;" vertex="1" parent="1">
                    <mxGeometry x="640" y="-1015" width="80" height="80" as="geometry"/>
                </mxCell>
                <mxCell id="64" value="&lt;font face=&quot;宋体&quot;&gt;传感器节点&lt;/font&gt;" style="text;html=1;strokeColor=none;fillColor=none;align=center;verticalAlign=middle;whiteSpace=wrap;rounded=0;fontFamily=Times New Roman;fontSize=50;" vertex="1" parent="1">
                    <mxGeometry x="730" y="-990" width="300" height="30" as="geometry"/>
                </mxCell>
                <mxCell id="132" value="" style="group" vertex="1" connectable="0" parent="1">
                    <mxGeometry x="-1110" y="-1150" width="2276" height="2220" as="geometry"/>
                </mxCell>
                <mxCell id="130" value="" style="group" vertex="1" connectable="0" parent="132">
                    <mxGeometry y="2136" width="2276" height="84" as="geometry"/>
                </mxCell>
                <mxCell id="66" value="" style="endArrow=classic;html=1;fontFamily=宋体;fontSize=50;strokeWidth=5;" edge="1" parent="130">
                    <mxGeometry width="50" height="50" relative="1" as="geometry">
                        <mxPoint x="110" y="14" as="sourcePoint"/>
                        <mxPoint x="2210" y="14" as="targetPoint"/>
                    </mxGeometry>
                </mxCell>
                <mxCell id="67" value="&lt;font face=&quot;Times New Roman&quot;&gt;-100&lt;/font&gt;" style="text;html=1;strokeColor=none;fillColor=none;align=center;verticalAlign=middle;whiteSpace=wrap;rounded=0;fontFamily=宋体;fontSize=50;" vertex="1" parent="130">
                    <mxGeometry y="54" width="60" height="30" as="geometry"/>
                </mxCell>
                <mxCell id="87" value="" style="group;rotation=90;" vertex="1" connectable="0" parent="130">
                    <mxGeometry x="1097.5" y="-976" width="25" height="2000" as="geometry"/>
                </mxCell>
                <mxCell id="88" value="" style="endArrow=none;html=1;fontFamily=Times New Roman;fontSize=50;strokeWidth=5;" edge="1" parent="87">
                    <mxGeometry width="50" height="50" relative="1" as="geometry">
                        <mxPoint x="-987" y="988" as="sourcePoint"/>
                        <mxPoint x="-987" y="1013" as="targetPoint"/>
                    </mxGeometry>
                </mxCell>
                <mxCell id="89" value="" style="endArrow=none;html=1;fontFamily=Times New Roman;fontSize=50;strokeWidth=5;" edge="1" parent="87">
                    <mxGeometry width="50" height="50" relative="1" as="geometry">
                        <mxPoint x="13" y="988" as="sourcePoint"/>
                        <mxPoint x="13" y="1013" as="targetPoint"/>
                    </mxGeometry>
                </mxCell>
                <mxCell id="90" value="" style="endArrow=none;html=1;fontFamily=Times New Roman;fontSize=50;strokeWidth=5;" edge="1" parent="87">
                    <mxGeometry width="50" height="50" relative="1" as="geometry">
                        <mxPoint x="-487" y="988" as="sourcePoint"/>
                        <mxPoint x="-487" y="1013" as="targetPoint"/>
                    </mxGeometry>
                </mxCell>
                <mxCell id="91" value="" style="endArrow=none;html=1;fontFamily=Times New Roman;fontSize=50;strokeWidth=5;" edge="1" parent="87">
                    <mxGeometry width="50" height="50" relative="1" as="geometry">
                        <mxPoint x="513" y="988" as="sourcePoint"/>
                        <mxPoint x="513" y="1013" as="targetPoint"/>
                    </mxGeometry>
                </mxCell>
                <mxCell id="92" value="" style="group;rotation=90;" vertex="1" connectable="0" parent="87">
                    <mxGeometry x="-250" y="500" width="25" height="1000" as="geometry"/>
                </mxCell>
                <mxCell id="93" value="" style="endArrow=none;html=1;fontFamily=Times New Roman;fontSize=50;strokeWidth=5;" edge="1" parent="92">
                    <mxGeometry width="50" height="50" relative="1" as="geometry">
                        <mxPoint x="-487" y="488" as="sourcePoint"/>
                        <mxPoint x="-487" y="513" as="targetPoint"/>
                    </mxGeometry>
                </mxCell>
                <mxCell id="94" value="" style="endArrow=none;html=1;fontFamily=Times New Roman;fontSize=50;strokeWidth=5;" edge="1" parent="92">
                    <mxGeometry width="50" height="50" relative="1" as="geometry">
                        <mxPoint x="513" y="487" as="sourcePoint"/>
                        <mxPoint x="513" y="513" as="targetPoint"/>
                    </mxGeometry>
                </mxCell>
                <mxCell id="95" value="" style="group;rotation=90;" vertex="1" connectable="0" parent="87">
                    <mxGeometry x="250" y="500" width="25" height="1000" as="geometry"/>
                </mxCell>
                <mxCell id="96" value="" style="endArrow=none;html=1;fontFamily=Times New Roman;fontSize=50;strokeWidth=5;" edge="1" parent="95">
                    <mxGeometry width="50" height="50" relative="1" as="geometry">
                        <mxPoint x="-487" y="488" as="sourcePoint"/>
                        <mxPoint x="-487" y="513" as="targetPoint"/>
                    </mxGeometry>
                </mxCell>
                <mxCell id="97" value="" style="endArrow=none;html=1;fontFamily=Times New Roman;fontSize=50;strokeWidth=5;" edge="1" parent="95">
                    <mxGeometry width="50" height="50" relative="1" as="geometry">
                        <mxPoint x="513" y="487" as="sourcePoint"/>
                        <mxPoint x="513" y="513" as="targetPoint"/>
                    </mxGeometry>
                </mxCell>
                <mxCell id="98" value="" style="endArrow=none;html=1;fontFamily=Times New Roman;fontSize=50;strokeWidth=5;" edge="1" parent="87">
                    <mxGeometry width="50" height="50" relative="1" as="geometry">
                        <mxPoint x="1013" y="987" as="sourcePoint"/>
                        <mxPoint x="1013" y="1012" as="targetPoint"/>
                    </mxGeometry>
                </mxCell>
                <mxCell id="99" value="&lt;font face=&quot;Times New Roman&quot;&gt;100&lt;/font&gt;" style="text;html=1;strokeColor=none;fillColor=none;align=center;verticalAlign=middle;whiteSpace=wrap;rounded=0;fontFamily=宋体;fontSize=50;" vertex="1" parent="130">
                    <mxGeometry x="2080" y="54" width="60" height="30" as="geometry"/>
                </mxCell>
                <mxCell id="102" value="&lt;font face=&quot;Times New Roman&quot;&gt;0&lt;/font&gt;" style="text;html=1;strokeColor=none;fillColor=none;align=center;verticalAlign=middle;whiteSpace=wrap;rounded=0;fontFamily=宋体;fontSize=50;" vertex="1" parent="130">
                    <mxGeometry x="1080" y="54" width="60" height="30" as="geometry"/>
                </mxCell>
                <mxCell id="118" value="&lt;font face=&quot;Times New Roman&quot;&gt;75&lt;/font&gt;" style="text;html=1;strokeColor=none;fillColor=none;align=center;verticalAlign=middle;whiteSpace=wrap;rounded=0;fontFamily=宋体;fontSize=50;" vertex="1" parent="130">
                    <mxGeometry x="1830" y="54" width="60" height="30" as="geometry"/>
                </mxCell>
                <mxCell id="119" value="&lt;font face=&quot;Times New Roman&quot;&gt;50&lt;/font&gt;" style="text;html=1;strokeColor=none;fillColor=none;align=center;verticalAlign=middle;whiteSpace=wrap;rounded=0;fontFamily=宋体;fontSize=50;" vertex="1" parent="130">
                    <mxGeometry x="1580" y="54" width="60" height="30" as="geometry"/>
                </mxCell>
                <mxCell id="120" value="&lt;font face=&quot;Times New Roman&quot;&gt;25&lt;/font&gt;" style="text;html=1;strokeColor=none;fillColor=none;align=center;verticalAlign=middle;whiteSpace=wrap;rounded=0;fontFamily=宋体;fontSize=50;" vertex="1" parent="130">
                    <mxGeometry x="1330" y="54" width="60" height="30" as="geometry"/>
                </mxCell>
                <mxCell id="121" value="&lt;font face=&quot;Times New Roman&quot;&gt;-25&lt;/font&gt;" style="text;html=1;strokeColor=none;fillColor=none;align=center;verticalAlign=middle;whiteSpace=wrap;rounded=0;fontFamily=宋体;fontSize=50;" vertex="1" parent="130">
                    <mxGeometry x="830" y="54" width="60" height="30" as="geometry"/>
                </mxCell>
                <mxCell id="122" value="&lt;font face=&quot;Times New Roman&quot;&gt;-50&lt;/font&gt;" style="text;html=1;strokeColor=none;fillColor=none;align=center;verticalAlign=middle;whiteSpace=wrap;rounded=0;fontFamily=宋体;fontSize=50;" vertex="1" parent="130">
                    <mxGeometry x="580" y="54" width="60" height="30" as="geometry"/>
                </mxCell>
                <mxCell id="123" value="&lt;font face=&quot;Times New Roman&quot;&gt;-75&lt;/font&gt;" style="text;html=1;strokeColor=none;fillColor=none;align=center;verticalAlign=middle;whiteSpace=wrap;rounded=0;fontFamily=宋体;fontSize=50;" vertex="1" parent="130">
                    <mxGeometry x="320" y="54" width="60" height="30" as="geometry"/>
                </mxCell>
                <mxCell id="126" value="米" style="text;html=1;strokeColor=none;fillColor=none;align=center;verticalAlign=middle;whiteSpace=wrap;rounded=0;fontFamily=宋体;fontSize=50;" vertex="1" parent="130">
                    <mxGeometry x="2216" width="60" height="30" as="geometry"/>
                </mxCell>
                <mxCell id="131" value="" style="group" vertex="1" connectable="0" parent="132">
                    <mxGeometry width="140" height="2150" as="geometry"/>
                </mxCell>
                <mxCell id="65" value="" style="endArrow=classic;html=1;fontFamily=宋体;fontSize=50;strokeWidth=5;" edge="1" parent="131">
                    <mxGeometry width="50" height="50" relative="1" as="geometry">
                        <mxPoint x="110" y="2150" as="sourcePoint"/>
                        <mxPoint x="110" y="50" as="targetPoint"/>
                    </mxGeometry>
                </mxCell>
                <mxCell id="86" value="" style="group" vertex="1" connectable="0" parent="131">
                    <mxGeometry x="85" y="150" width="25" height="2000" as="geometry"/>
                </mxCell>
                <mxCell id="71" value="" style="endArrow=none;html=1;fontFamily=Times New Roman;fontSize=50;strokeWidth=5;" edge="1" parent="86">
                    <mxGeometry width="50" height="50" relative="1" as="geometry">
                        <mxPoint y="2000" as="sourcePoint"/>
                        <mxPoint x="25" y="2000" as="targetPoint"/>
                    </mxGeometry>
                </mxCell>
                <mxCell id="73" value="" style="endArrow=none;html=1;fontFamily=Times New Roman;fontSize=50;strokeWidth=5;" edge="1" parent="86">
                    <mxGeometry width="50" height="50" relative="1" as="geometry">
                        <mxPoint y="1000" as="sourcePoint"/>
                        <mxPoint x="25" y="1000" as="targetPoint"/>
                    </mxGeometry>
                </mxCell>
                <mxCell id="76" value="" style="endArrow=none;html=1;fontFamily=Times New Roman;fontSize=50;strokeWidth=5;" edge="1" parent="86">
                    <mxGeometry width="50" height="50" relative="1" as="geometry">
                        <mxPoint y="1500" as="sourcePoint"/>
                        <mxPoint x="25" y="1500" as="targetPoint"/>
                    </mxGeometry>
                </mxCell>
                <mxCell id="77" value="" style="endArrow=none;html=1;fontFamily=Times New Roman;fontSize=50;strokeWidth=5;" edge="1" parent="86">
                    <mxGeometry width="50" height="50" relative="1" as="geometry">
                        <mxPoint y="500" as="sourcePoint"/>
                        <mxPoint x="25" y="500" as="targetPoint"/>
                    </mxGeometry>
                </mxCell>
                <mxCell id="79" value="" style="group" vertex="1" connectable="0" parent="86">
                    <mxGeometry y="750" width="25" height="1000" as="geometry"/>
                </mxCell>
                <mxCell id="80" value="" style="endArrow=none;html=1;fontFamily=Times New Roman;fontSize=50;strokeWidth=5;" edge="1" parent="79">
                    <mxGeometry width="50" height="50" relative="1" as="geometry">
                        <mxPoint y="1000" as="sourcePoint"/>
                        <mxPoint x="25" y="1000" as="targetPoint"/>
                    </mxGeometry>
                </mxCell>
                <mxCell id="81" value="" style="endArrow=none;html=1;fontFamily=Times New Roman;fontSize=50;strokeWidth=5;" edge="1" parent="79">
                    <mxGeometry width="50" height="50" relative="1" as="geometry">
                        <mxPoint as="sourcePoint"/>
                        <mxPoint x="25" as="targetPoint"/>
                    </mxGeometry>
                </mxCell>
                <mxCell id="82" value="" style="group" vertex="1" connectable="0" parent="86">
                    <mxGeometry y="250" width="25" height="1000" as="geometry"/>
                </mxCell>
                <mxCell id="83" value="" style="endArrow=none;html=1;fontFamily=Times New Roman;fontSize=50;strokeWidth=5;" edge="1" parent="82">
                    <mxGeometry width="50" height="50" relative="1" as="geometry">
                        <mxPoint y="1000" as="sourcePoint"/>
                        <mxPoint x="25" y="1000" as="targetPoint"/>
                    </mxGeometry>
                </mxCell>
                <mxCell id="84" value="" style="endArrow=none;html=1;fontFamily=Times New Roman;fontSize=50;strokeWidth=5;" edge="1" parent="82">
                    <mxGeometry width="50" height="50" relative="1" as="geometry">
                        <mxPoint as="sourcePoint"/>
                        <mxPoint x="25" as="targetPoint"/>
                    </mxGeometry>
                </mxCell>
                <mxCell id="85" value="" style="endArrow=none;html=1;fontFamily=Times New Roman;fontSize=50;strokeWidth=5;" edge="1" parent="86">
                    <mxGeometry width="50" height="50" relative="1" as="geometry">
                        <mxPoint as="sourcePoint"/>
                        <mxPoint x="25" as="targetPoint"/>
                    </mxGeometry>
                </mxCell>
                <mxCell id="100" value="&lt;font face=&quot;Times New Roman&quot;&gt;100&lt;/font&gt;" style="text;html=1;strokeColor=none;fillColor=none;align=center;verticalAlign=middle;whiteSpace=wrap;rounded=0;fontFamily=宋体;fontSize=50;" vertex="1" parent="131">
                    <mxGeometry y="135" width="60" height="30" as="geometry"/>
                </mxCell>
                <mxCell id="101" value="&lt;font face=&quot;Times New Roman&quot;&gt;0&lt;/font&gt;" style="text;html=1;strokeColor=none;fillColor=none;align=center;verticalAlign=middle;whiteSpace=wrap;rounded=0;fontFamily=宋体;fontSize=50;" vertex="1" parent="131">
                    <mxGeometry y="1135" width="60" height="30" as="geometry"/>
                </mxCell>
                <mxCell id="103" value="&lt;font face=&quot;Times New Roman&quot;&gt;75&lt;/font&gt;" style="text;html=1;strokeColor=none;fillColor=none;align=center;verticalAlign=middle;whiteSpace=wrap;rounded=0;fontFamily=宋体;fontSize=50;" vertex="1" parent="131">
                    <mxGeometry y="385" width="60" height="30" as="geometry"/>
                </mxCell>
                <mxCell id="104" value="&lt;font face=&quot;Times New Roman&quot;&gt;50&lt;/font&gt;" style="text;html=1;strokeColor=none;fillColor=none;align=center;verticalAlign=middle;whiteSpace=wrap;rounded=0;fontFamily=宋体;fontSize=50;" vertex="1" parent="131">
                    <mxGeometry y="630" width="60" height="30" as="geometry"/>
                </mxCell>
                <mxCell id="105" value="&lt;font face=&quot;Times New Roman&quot;&gt;25&lt;/font&gt;" style="text;html=1;strokeColor=none;fillColor=none;align=center;verticalAlign=middle;whiteSpace=wrap;rounded=0;fontFamily=宋体;fontSize=50;" vertex="1" parent="131">
                    <mxGeometry y="880" width="60" height="30" as="geometry"/>
                </mxCell>
                <mxCell id="106" value="&lt;font face=&quot;Times New Roman&quot;&gt;-25&lt;/font&gt;" style="text;html=1;strokeColor=none;fillColor=none;align=center;verticalAlign=middle;whiteSpace=wrap;rounded=0;fontFamily=宋体;fontSize=50;" vertex="1" parent="131">
                    <mxGeometry y="1380" width="60" height="30" as="geometry"/>
                </mxCell>
                <mxCell id="107" value="&lt;font face=&quot;Times New Roman&quot;&gt;-50&lt;/font&gt;" style="text;html=1;strokeColor=none;fillColor=none;align=center;verticalAlign=middle;whiteSpace=wrap;rounded=0;fontFamily=宋体;fontSize=50;" vertex="1" parent="131">
                    <mxGeometry y="1630" width="60" height="30" as="geometry"/>
                </mxCell>
                <mxCell id="108" value="&lt;font face=&quot;Times New Roman&quot;&gt;-75&lt;/font&gt;" style="text;html=1;strokeColor=none;fillColor=none;align=center;verticalAlign=middle;whiteSpace=wrap;rounded=0;fontFamily=宋体;fontSize=50;" vertex="1" parent="131">
                    <mxGeometry y="1880" width="60" height="30" as="geometry"/>
                </mxCell>
                <mxCell id="127" value="米" style="text;html=1;strokeColor=none;fillColor=none;align=center;verticalAlign=middle;whiteSpace=wrap;rounded=0;fontFamily=宋体;fontSize=50;" vertex="1" parent="131">
                    <mxGeometry x="80" width="60" height="30" as="geometry"/>
                </mxCell>
            </root>
        </mxGraphModel>
    </diagram>
</mxfile>